<svg width="1080" height="1600" viewBox="0 0 1080 1600" fill="none" xmlns="http://www.w3.org/2000/svg">
  <rect width="1080" height="1600" fill="#ECECEC"/>

  <rect x="0" y="0" width="360" height="230" fill="#0E4D34"/>
  <rect x="80" y="90" width="300" height="300" fill="#C30608"/>
  <text x="460" y="170" font-family="Georgia, 'Times New Roman', serif" font-size="154" font-weight="700" fill="#0C0C0C">Nova</text>
  <text x="460" y="295" font-family="Georgia, 'Times New Roman', serif" font-size="138" fill="#0C0C0C">Unidade</text>

  <rect x="95" y="470" width="890" height="540" fill="#D9A56A"/>
  <rect x="125" y="430" width="810" height="470" fill="#C30608"/>
  <rect x="165" y="470" width="810" height="470" fill="#0E4D34"/>
  <rect x="205" y="510" width="730" height="390" fill="#423027"/>

  <rect x="235" y="545" width="670" height="320" fill="#7A4F32"/>
  <rect x="255" y="565" width="630" height="280" fill="#8D623A"/>
  <text x="570" y="710" text-anchor="middle" font-family="Georgia, 'Times New Roman', serif" font-size="120" font-weight="700" fill="#F9EAD9">Casa Aurelia</text>
  <text x="570" y="785" text-anchor="middle" font-family="Georgia, 'Times New Roman', serif" font-size="50" fill="#F9EAD9">Ristorante Italiano</text>

  <rect x="100" y="1080" width="560" height="250" fill="#C8AB45"/>
  <rect x="125" y="1110" width="510" height="190" fill="#D9A56A"/>
  <rect x="145" y="1130" width="470" height="150" fill="#5D3B2D"/>
  <text x="380" y="1223" text-anchor="middle" font-family="Georgia, 'Times New Roman', serif" font-size="72" fill="#F9EAD9">Placa da unidade</text>

  <rect x="695" y="1225" width="305" height="280" fill="#0E4D34"/>
  <rect x="760" y="1285" width="320" height="315" fill="#C30608"/>

  <rect x="95" y="1420" width="560" height="16" fill="#D9A56A"/>
  <rect x="95" y="1450" width="560" height="16" fill="#D9A56A"/>
  <rect x="95" y="1480" width="560" height="16" fill="#D9A56A"/>
  <rect x="95" y="1510" width="560" height="16" fill="#D9A56A"/>
</svg>
