<svg width="1080" height="1600" viewBox="0 0 1080 1600" fill="none" xmlns="http://www.w3.org/2000/svg">
  <rect width="1080" height="1600" fill="#ECECEC"/>
  <rect x="0" y="260" width="560" height="300" fill="#0E4D34"/>
  <rect x="0" y="1060" width="560" height="310" fill="#0E4D34"/>
  <rect x="0" y="560" width="1080" height="420" fill="#C8AB45"/>

  <text x="110" y="190" font-family="Georgia, 'Times New Roman', serif" font-size="180" font-weight="700" fill="#0C0C0C">Delivery</text>

  <rect x="130" y="600" width="330" height="250" rx="10" fill="#D9A56A" stroke="#1F1F1F" stroke-width="4"/>
  <rect x="160" y="565" width="20" height="80" rx="10" stroke="#8D623A" stroke-width="6"/>
  <rect x="410" y="565" width="20" height="80" rx="10" stroke="#8D623A" stroke-width="6"/>
  <text x="295" y="695" text-anchor="middle" font-family="Georgia, 'Times New Roman', serif" font-size="48" font-weight="700" fill="#0C0C0C">Casa</text>
  <text x="295" y="760" text-anchor="middle" font-family="Georgia, 'Times New Roman', serif" font-size="78" font-weight="700" fill="#0C0C0C">Aurelia</text>

  <rect x="585" y="620" width="290" height="150" rx="8" fill="#C03A2B" stroke="#9A2A1E" stroke-width="4"/>
  <text x="730" y="705" text-anchor="middle" font-family="Georgia, 'Times New Roman', serif" font-size="66" font-weight="700" fill="#FBE8D8">Aurelia</text>

  <rect x="515" y="820" width="355" height="135" rx="8" fill="#D9A56A" stroke="#1F1F1F" stroke-width="4"/>
  <text x="693" y="902" text-anchor="middle" font-family="Georgia, 'Times New Roman', serif" font-size="64" font-weight="700" fill="#0C0C0C">Aurelia</text>

  <rect x="120" y="915" width="190" height="90" rx="45" fill="#D9A56A" stroke="#1F1F1F" stroke-width="4"/>
  <text x="215" y="975" text-anchor="middle" font-family="Georgia, 'Times New Roman', serif" font-size="44" font-weight="700" fill="#0C0C0C">Casa</text>

  <rect x="360" y="920" width="110" height="190" rx="16" fill="#D9A56A" stroke="#1F1F1F" stroke-width="4"/>
  <ellipse cx="415" cy="930" rx="48" ry="16" fill="#1F1F1F"/>

  <ellipse cx="570" cy="990" rx="62" ry="45" fill="#CC4534" stroke="#8F2A20" stroke-width="4"/>
  <ellipse cx="700" cy="990" rx="62" ry="45" fill="#6E7B45" stroke="#465126" stroke-width="4"/>

  <rect x="130" y="1460" width="200" height="80" fill="#C8AB45"/>
  <rect x="330" y="1460" width="200" height="80" fill="#D9A56A"/>
  <rect x="530" y="1460" width="200" height="80" fill="#C30608"/>
  <rect x="730" y="1460" width="200" height="80" fill="#0E4D34"/>
</svg>
